<?xml version="1.0" standalone="yes"?>
<svg xmlns="http://www.w3.org/2000/svg" width="656" height="356">
<path style="fill:#064589; stroke:#064589;" d="M271 33L270.872 35.1196L270.741 36.071L270.29 37.7392C270.009 38.5867 269.678 39.4199 269.451 40.2847C269.136 41.4821 268.987 42.7102 268.759 43.9251L268.549 44.8341C268.272 46.0104 267.742 47.1117 267.455 48.2855L267.124 50.0887C266.995 51.3605 266.973 52.6516 266.742 53.9113L266.29 55.7145C265.917 56.8614 265.483 57.9797 265.258 59.1698C265.023 60.4192 265.002 61.7021 264.876 62.9645L264.545 64.8302C264.334 65.7139 263.993 66.5632 263.71 67.4244L263.455 68.2855L263.259 69.1698L263.13 70.0887L263.059 71.0355L263.059 72.9637L263.134 73.9066L263.514 75.6559L263.858 76.4275L264.894 77.6821L266.343 78.4854L267.185 78.7168L268.079 78.848L269.001 78.8912L269.925 78.8526L270.834 78.7361L271.715 78.544L272.576 78.2901C273.437 78.0069 274.286 77.6658 275.17 77.4553L277.035 77.1242L279.911 76.8758L281.715 76.5447C282.888 76.2582 283.99 75.7285 285.166 75.4506L286.075 75.2408C287.29 75.0128 288.518 74.8633 289.715 74.5494L292.285 73.7099L294.089 73.2585L295.035 73.1242L296 73.0355L297.911 72.8758L298.83 72.7415L299.715 72.5447L300.575 72.2893L303.13 71.4005C304.739 70.8572 306.549 70.4967 307.681 69.108L308.468 67.6705L308.667 66.8511L308.667 65.1443L308.152 63.5139L307.2 62.0401L305.981 60.6705L304.671 59.3295L304.023 58.6528L303.407 57.9637L302.855 57.2546L302.411 56.5224L302.02 55L302.412 53.4784L302.859 52.75L303.421 52.054L304.059 51.3974L305.479 50.2245C306.459 49.5145 307.532 48.963 308.601 48.4051L311.001 47.2006L313.435 46.0494L314.275 45.7099C315.396 45.2606 316.581 44.9692 317.729 44.5988C318.878 44.2282 319.994 43.7381 321.17 43.4553L323.035 43.1242L324 43.0355C324.946 42.9463 325.894 42.9179 326.83 42.7415L328.576 42.2901L330.285 41.7099L331.17 41.4553L333.039 41.1296L335 41.037L336.961 41.1296L338.83 41.4553C339.714 41.6631 340.564 42.007 341.424 42.2901L343.17 42.7407C345.397 43.1446 347.682 42.8654 349.91 43.2593C351.419 43.5259 352.823 44.1227 354.271 44.5988C355.418 44.9759 356.603 45.2601 357.725 45.7099L358.565 46.0494C359.658 46.5357 360.73 47.065 361.8 47.5995C363.141 48.2689 364.484 48.9322 365.764 49.7145C366.553 50.1971 367.253 50.7831 367.941 51.3974L368.579 52.054L369.141 52.75L369.879 54.2322L369.98 55L369.879 55.7678L369.589 56.5224L369.145 57.2546L367.977 58.6528L367.329 59.3295L366.019 60.6705L364.8 62.0401L363.848 63.5139L363.333 65.1443L363.333 66.8511L363.532 67.6705L364.319 69.108L365.569 70.1605L366.329 70.5401L368.005 71.1258L369.729 71.6913C370.579 71.9893 371.419 72.2986 372.285 72.5494C373.476 72.8944 374.718 72.9746 375.925 73.2408L377.715 73.7091C378.861 74.0845 379.98 74.5175 381.17 74.7415C382.419 74.9768 383.702 74.9984 384.965 75.1242L386.83 75.4553C387.714 75.6658 388.563 76.0068 389.424 76.2901L391.17 76.7415C392.104 76.9175 393.055 76.9568 394 77.0355L395.911 77.2585C396.829 77.3995 397.698 77.7142 398.576 78L399.424 78.2901L401.166 78.7361L402.999 78.8912L404.815 78.7168L406.427 78.142L407.682 77.1065L408.485 75.6566L408.848 73.9205L408.891 72.9992L408.853 72.0749L408.736 71.1659L408.544 70.2847L408 68.5756L407.455 66.8302L407.124 64.9645L406.965 63.0355L406.876 62.0887L406.545 60.2855C406.331 59.4113 405.988 58.5688 405.71 57.7145L405.258 55.9113C404.971 54.3439 405.036 52.736 404.742 51.1698C404.517 49.9798 404.083 48.8614 403.71 47.7145L403.258 45.9113C402.971 44.3439 403.037 42.7359 402.742 41.1698C402.519 39.9865 402.087 38.8773 401.71 37.7392L401.259 36.071L401.128 35.1196L401 33L397.854 33.0185L396.069 33.1335L394.324 33.51L392.76 34.2778C391.993 34.7549 391.322 35.3998 390.671 36.0185C389.539 37.0934 388.475 38.2344 387.241 39.1952L385.689 40.1026L384.855 40.3611L383.13 40.4066L382.275 40.2168L380.615 39.5718C379.526 39.0474 378.478 38.4693 377.475 37.794L374.525 35.7099C373.52 35.0733 372.459 34.5381 371.399 34.0008L369 32.8002L365.8 31.2006C365.002 30.8059 364.206 30.3976 363.386 30.0494L361.725 29.4059L359.13 28.5988C357.988 28.232 356.877 27.7582 355.715 27.4506C354.217 27.0539 352.666 26.9356 351.166 26.5494L348.576 25.7099L347.715 25.4553L345.91 25.1288C344.946 25.0126 343.966 25.0163 342.996 25.0046L340 25L331 25L328.015 25.0185C327.062 25.0473 326.11 25.0891 325.17 25.2593C323.676 25.5295 322.298 26.1725 320.834 26.5494C319.334 26.9356 317.783 27.0539 316.285 27.4506C315.124 27.7581 314.01 28.227 312.87 28.5988C311.725 28.9719 310.56 29.2747 309.435 29.7099C308.05 30.2462 306.728 30.9387 305.4 31.5995L301.4 33.5995C300.336 34.1349 299.275 34.6685 298.235 35.2492L296.731 36.206L294.525 37.794C293.522 38.4693 292.474 39.0473 291.385 39.5718L289.725 40.2168L288.87 40.4066L287.145 40.3611L286.311 40.1026L284.759 39.1952C283.525 38.2345 282.461 37.0933 281.329 36.0185C280.678 35.3998 280.007 34.7548 279.24 34.2778L277.676 33.51L275.931 33.1335L274.146 33.0185L271 33M235 129L235 131L236.075 132.044L236.296 132.424L236.828 133.137L237.719 134.541L238.224 135.258L239.383 136.653C240.211 137.586 241.119 138.452 242 139.333L245.333 142.667L256.667 154L259.333 156.666L261.347 158.617L262.745 159.776C263.449 160.324 264.238 160.746 265.014 161.177L266.601 161.927L268.2 162.411L269.8 162.411L270.6 162.218L272.196 161.572C273.004 161.201 273.767 160.751 274.522 160.285L275.255 159.776L275.965 159.219L278.035 157.379L278.745 156.781L280.232 155.71L282.526 154.295L285.475 152.206L287.014 151.249C288.048 150.651 289.132 150.134 290.2 149.6L295 147.2L299.001 145.201C300.075 144.668 301.153 144.137 302.275 143.71C303.126 143.386 304 143.138 304.87 142.87L306.579 142.308L309.13 141.401L311.729 140.599C312.877 140.229 313.993 139.735 315.17 139.455L317.039 139.129L318.015 139.054L320.996 138.996C321.966 138.98 322.945 138.988 323.91 138.871L325.715 138.545L326.576 138.29C327.74 137.907 328.876 137.472 330.09 137.259C331.705 136.975 333.366 137.002 335 137.002C336.634 137.002 338.295 136.976 339.91 137.259C341.123 137.472 342.26 137.907 343.424 138.29L344.285 138.545L346.09 138.871L348.015 138.981L350.996 139.019C351.972 139.049 352.947 139.09 353.91 139.259L355.715 139.71C356.571 139.989 357.413 140.321 358.285 140.549C359.784 140.942 361.335 141.061 362.834 141.451C364.004 141.755 365.124 142.222 366.271 142.599C367.42 142.977 368.594 143.279 369.725 143.71C370.848 144.137 371.923 144.67 372.999 145.201L375.4 146.4L380.2 148.8L383.399 150.405L384.986 151.249L386.525 152.206L389.474 154.295L391.769 155.705L392.526 156.205L395.474 158.295L397.769 159.705L400.731 161.721L402.235 162.362L403.804 162.407L405.399 161.927L406.986 161.177C407.763 160.746 408.551 160.325 409.255 159.776L410.653 158.617L412.667 156.666L415.333 154L426.667 142.667L430 139.333C430.881 138.452 431.789 137.586 432.617 136.653L433.776 135.258L434.281 134.541L435.172 133.137L435.704 132.424L435.925 132.044L437 131L437 129L435.925 127.956L435.704 127.576L435.171 126.868L434.758 126.205L433.74 124.856L433.139 124.258C432.488 123.668 431.73 123.239 430.995 122.769L430.231 122.29L428.745 121.218C427.043 119.859 425.648 118.16 423.964 116.782L422.522 115.71L419.474 113.795L416.526 111.705L413.474 109.795L411.269 108.206L409.765 107.249L408.196 106.405L405.8 105.2L400.2 102.4L394.6 99.5995C393.272 98.9388 391.95 98.2462 390.565 97.7099C389.44 97.2744 388.272 96.9828 387.13 96.5988L383.729 95.4012L381.13 94.5988L377.729 93.4012L375.13 92.5988L373.421 92.0046L371.715 91.4553L370.83 91.2585L369.911 91.1242L367.035 90.8758L365.17 90.5447C364.286 90.3342 363.437 89.9932 362.576 89.7099L360.83 89.2593C359.565 89.0299 358.28 89.0298 357 88.9861L355.039 88.8712L353.17 88.5447L352.285 88.2901L350.576 87.7099L349.715 87.4553L347.91 87.1288L345.985 87.0185L343.999 87.0008L338 87L331 87L329.004 87.0046L327.039 87.054C326.111 87.1203 325.187 87.207 324.285 87.4553L321.715 88.2901L320.83 88.5447L318.961 88.8712L316.996 88.9815L314.015 89.0185C313.061 89.0482 312.111 89.0891 311.17 89.2593C309.676 89.5295 308.298 90.1725 306.834 90.5494C305.627 90.8601 304.389 91.0075 303.166 91.2408L302.285 91.4506L300.576 92L298.834 92.5494C297.334 92.9357 295.783 93.0539 294.285 93.4506C293.123 93.7583 292.013 94.2328 290.87 94.5988L288.271 95.4012L285.729 96.3079L284 96.8696C283.139 97.1353 282.276 97.3842 281.435 97.7099C280.605 98.0314 279.802 98.417 279.001 98.8048L276.6 100L271 102.8L266.2 105.2L263.804 106.405L262.235 107.249L260.731 108.206C259.745 108.906 258.783 109.635 257.769 110.295L255.474 111.705L252.526 113.795L251.769 114.295L250.232 115.232L248.745 116.223C247.511 117.14 246.46 118.269 245.255 119.219L243.768 120.29L241.478 121.71C240.731 122.203 240.031 122.765 239.397 123.397L238.225 124.746L237.238 126.188L236.828 126.863L236.296 127.576L236.075 127.956L235 129z"/>
<path style="fill:#064589; stroke:#064589;" d="M39 187L39 283L55 283L55 243L95 243L94.8603 241.427L94.544 240.126L94.2901 239.38C93.9973 238.535 93.6752 237.699 93.4506 236.833C93.0623 235.335 92.9497 233.784 92.5494 232.289L91.9992 230.62L91.7114 229.874L91.4429 228.992L91.2809 228.573L91 227L55 227L55 203L103 203L103 187L39 187M109 187L109 283L127 283L127 187L109 187M287 187L287 203L303 203L303 187L287 187M423 187L422.872 189.12L422.74 190.071L422.272 191.735L421.581 193.387L420 196.6L416 204.6L414.805 207.001C414.417 207.802 414.032 208.604 413.71 209.435C413.274 210.56 412.983 211.729 412.594 212.869C412.301 213.73 411.956 214.557 411.582 215.386C411.091 216.473 410.534 217.533 410 218.6L407.6 223.4C407.069 224.462 406.514 225.521 406.049 226.614L405.406 228.275L404.594 230.869C404.308 231.731 403.955 232.559 403.582 233.386L402.799 234.999L401.6 237.4L398 244.6L396.805 247.001L396.049 248.614L395.406 250.275L394.594 252.869C394.308 253.731 393.955 254.559 393.582 255.386L392.799 256.999L391.6 259.4L388.4 265.8L387.201 268.2L386.418 269.804C386.047 270.617 385.699 271.429 385.406 272.275L384.29 275.725C383.668 277.358 382.833 278.896 382.06 280.46L381.699 281.261L381.499 281.644L381 283L389 283L392.996 282.995L394.96 282.945L395.906 282.867L396.811 282.721L398.432 282.143L399.125 281.686C400.277 280.803 400.93 279.443 401.595 278.195L402.4 276.6L404.405 272.601L405.254 271.019L405.729 270.255L406.264 269.533L407.568 268.314L409.189 267.514L411.04 267.133L412.015 267.055L414.001 267.005L417 267L422 267L447 267L446.501 265.644L446.301 265.261L445.94 264.46L444.799 262.195L442.4 257.4L441.595 255.805L440.746 254.255C440.297 253.539 439.805 252.835 439.125 252.314L437.657 251.514L436.811 251.279L434.96 251.055L433.985 251.019L431 251L415 251L415.057 249.344L415.128 248.88L415.46 247.126L415.728 246.265L416.054 245.434C416.535 244.339 417.068 243.271 417.6 242.2L420.4 236.6L422.799 231.8C423.327 230.737 423.861 229.673 424.29 228.565C424.726 227.44 425.017 226.271 425.406 225.131L426.049 223.435L426.805 221.804L428 219.4L430.4 214.6C431.172 213.049 431.972 211.512 432.539 209.87L432.86 208.573L433 207L435 207L435.019 208.656C435.067 209.697 435.184 210.728 435.46 211.735C435.693 212.588 436.052 213.395 436.419 214.196L438 217.4L441.6 224.6L442.799 227.001L443.582 228.614C443.955 229.441 444.308 230.269 444.594 231.131L445.406 233.725L446.049 235.386C446.514 236.479 447.069 237.538 447.6 238.6L450.4 244.2C450.934 245.268 451.49 246.333 451.951 247.435L452.594 249.131L453.406 251.725C453.784 252.855 454.291 253.926 454.805 254.999L456.4 258.2L459.6 264.6L460.799 267.001C461.196 267.805 461.604 268.608 461.951 269.435L462.594 271.131C462.963 272.277 463.275 273.441 463.71 274.565C464.448 276.471 465.486 278.243 466.27 280.13L466.718 281.427L467 283L485 283L484.86 281.427L484.544 280.126L483.401 276.868C483.025 275.727 482.744 274.55 482.29 273.435C481.504 271.507 480.53 269.662 479.6 267.8L476.4 261.4L474.805 258.196C474.286 257.106 473.786 256.017 473.406 254.869L472.594 252.275L471.951 250.614C471.486 249.521 470.931 248.462 470.4 247.4L468 242.6C467.466 241.533 466.909 240.473 466.418 239.386C466.045 238.559 465.692 237.731 465.406 236.869L464.594 234.275L463.951 232.614C463.602 231.794 463.194 230.998 462.799 230.2L461.6 227.8L458 220.6C457.199 218.996 456.349 217.403 455.71 215.725C455.279 214.595 454.969 213.424 454.594 212.275L453.951 210.614C453.602 209.794 453.194 208.998 452.799 208.2L451.6 205.8L448.4 199.4L446.805 196.196L446.049 194.565L445.405 192.87L444.85 191.15L444.54 190.329L443.687 188.893L443.107 188.318C442.191 187.567 441.055 187.283 439.906 187.133L437.985 187.019L435.999 187.001L432 187L423 187M197 275L197 273L195.247 272.069L194.424 271.69C193.341 271.274 192.232 270.952 191.13 270.594L189.435 269.951L185.386 268.055C184.587 267.711 183.737 267.417 182.869 267.314L181.13 267.313L180.271 267.474C179.396 267.669 178.569 268.029 177.715 268.29L175.91 268.741L173.985 268.946C172.998 269.013 171.993 269.006 171.004 268.981C169.711 268.947 168.428 268.861 167.171 268.54C165.994 268.24 164.894 267.718 163.804 267.195L161.4 265.999C159.807 265.189 158.143 264.418 156.86 263.14C156.009 262.292 155.408 261.27 154.814 260.237L153.981 258.739L153 257L207 257L207 248L206.995 245.004C206.98 243.723 206.97 242.434 206.741 241.17C206.472 239.689 205.879 238.29 205.4 236.87C205.019 235.738 204.724 234.581 204.18 233.51C203.774 232.711 203.238 232.001 202.727 231.269L201.705 229.769L200.29 227.478L199.218 226.036C198.435 225.08 197.544 224.203 196.666 223.334C195.783 222.461 194.902 221.595 193.964 220.782L192.522 219.715C191.532 219.059 190.456 218.536 189.399 218.001L186.2 216.4L182.999 214.805L181.385 214.054L180.561 213.728L178.829 213.26C177.892 213.083 176.936 213.047 175.985 213.019L172 213L169.004 213.005C167.723 213.02 166.434 213.03 165.17 213.259C163.686 213.529 162.296 214.132 160.87 214.599C159.728 214.973 158.55 215.255 157.435 215.71C155.783 216.383 154.189 217.191 152.601 218.001C151.277 218.676 149.946 219.338 148.745 220.224C148.007 220.768 147.335 221.388 146.671 222.018L144.667 224C143.56 225.104 142.458 226.212 141.383 227.347L140.782 228.036L140.224 228.745C139.679 229.445 139.238 230.235 138.823 231.015C138.264 232.062 137.794 233.153 137.406 234.275L136.599 236.87L135.711 239.425L135.455 240.285L135.129 242.09C135.013 243.054 135.016 244.034 135.005 245.004L135 249L135.005 252.996C135.016 253.966 135.013 254.946 135.129 255.91L135.455 257.715L135.711 258.575L136.599 261.13L137.406 263.725C137.794 264.847 138.264 265.938 138.823 266.985C139.238 267.765 139.679 268.555 140.224 269.255L140.782 269.964L141.383 270.653C142.459 271.788 143.561 272.894 144.667 274L148.001 277.329C148.874 278.189 149.757 279.048 150.745 279.776C152.181 280.835 153.792 281.613 155.435 282.29C156.548 282.748 157.728 283.027 158.87 283.401C160.296 283.868 161.686 284.471 163.17 284.741C164.434 284.97 165.723 284.98 167.004 284.995L171 285L174.996 284.995C175.966 284.984 176.946 284.987 177.91 284.871L179.715 284.545L180.575 284.289L183.13 283.401L185.725 282.594L186.565 282.29C187.659 281.838 188.743 281.353 189.764 280.749C190.539 280.291 191.267 279.79 191.963 279.219C192.886 278.462 193.719 277.601 194.605 276.802L195.683 275.888L197 275M509 219L509 215L493 215L493 283L509 283L509 272L509 258L509.005 254.001C509.02 252.695 509.033 251.38 509.259 250.09L509.71 248.285C509.989 247.429 510.32 246.587 510.549 245.715L510.926 243.925L511.259 242.079L511.843 240.325C512.632 238.627 514.039 237.312 515.334 236.001C516.434 234.888 517.544 233.785 518.745 232.782C519.676 232.004 520.735 231.38 521.808 230.823C522.607 230.407 523.425 230.052 524.265 229.728L525.929 229.26L526.88 229.128L529 229L529 213C527.663 213.005 526.33 212.995 524.995 213.054L523.166 213.26L521.439 213.728L519.804 214.419L518.2 215.201L515.001 216.799C513.968 217.312 512.936 217.827 511.87 218.27L510.573 218.718L509 219M553 221L553 215L537 215L537 283L553 283L553 255L553 246L553.018 243.004C553.048 242.03 553.084 241.051 553.26 240.09L553.728 238.289L554.055 237.439L554.823 235.809C555.352 234.743 556.016 233.704 556.86 232.86C557.919 231.802 559.268 231.047 560.616 230.424L562.289 229.733L563.167 229.478L565 229.258L566.833 229.478L567.711 229.733L569.384 230.424C570.733 231.047 572.081 231.802 573.14 232.86C573.984 233.704 574.648 234.743 575.177 235.809L575.945 237.439L576.272 238.289L576.74 240.09C576.916 241.051 576.952 242.03 576.982 243.004L577 246L577 255L577 283L593 283L593 256L593 248C593.003 246.671 593 245.343 593.054 244.015L593.129 243.039L593.455 241.17L594.005 239.425L594.6 237.729C595.074 236.308 595.417 234.8 596.309 233.564C597.203 232.326 598.481 231.524 599.809 230.823C601.41 229.978 603.16 229.258 605 229.258L606.833 229.478L607.711 229.733L609.384 230.424C610.733 231.047 612.081 231.802 613.14 232.86C613.984 233.704 614.648 234.743 615.177 235.809L615.945 237.439L616.272 238.289L616.74 240.09C616.916 241.051 616.952 242.03 616.982 243.004L617 246L617 255L617 283L633 283L633 248L633 237L632.982 234.015C632.943 232.756 632.863 231.513 632.54 230.289C632.312 229.427 631.951 228.612 631.581 227.804L630.4 225.4C629.604 223.809 628.837 222.182 627.776 220.745C627.236 220.013 626.625 219.319 625.982 218.675C625.326 218.02 624.663 217.389 623.964 216.782L622.522 215.715L621.764 215.251L620.192 214.424C619.13 213.89 617.998 213.481 616.829 213.26C615.244 212.96 613.604 213.01 611.999 213.001L609.004 213.005C607.724 213.02 606.434 213.03 605.17 213.259C603.688 213.528 602.292 214.125 600.87 214.599C599.727 214.979 598.559 215.272 597.435 215.71C596.328 216.142 595.275 216.678 594.235 217.25L592.732 218.201C591.58 218.939 590.458 219.981 589 219.981L587.474 219.606L586.732 219.195L586 218.708L584.525 217.709C583.01 216.767 581.396 215.994 579.8 215.201L578.196 214.419L576.561 213.728L574.829 213.26L573.911 213.129L571.986 213.019L570.014 213.019L568.089 213.129L566.289 213.46C564.854 213.839 563.524 214.549 562.2 215.201L559.804 216.405C559.015 216.815 558.227 217.227 557.479 217.711L556.042 218.736L555.409 219.248L554.665 219.816L554.318 220.117L553 221M203 215L203.499 216.356L203.699 216.739L204.061 217.539C204.718 218.816 205.367 220.097 206.224 221.255C207.701 223.251 209.673 224.808 211.218 226.745L212.29 228.232C212.929 229.243 213.506 230.296 214.223 231.255C215.711 233.244 217.672 234.807 219.218 236.745L220.29 238.232C220.929 239.243 221.506 240.296 222.223 241.255C222.961 242.241 223.816 243.116 224.671 244L225.981 245.348C226.604 246.037 227.242 246.716 227.721 247.518C228.357 248.581 228.733 249.753 228.733 251C228.733 252.247 228.357 253.419 227.721 254.482C227.242 255.284 226.604 255.963 225.981 256.652L224.671 258C223.816 258.884 222.961 259.759 222.223 260.745C221.506 261.704 220.929 262.757 220.29 263.768L219.218 265.255C217.672 267.192 215.711 268.756 214.223 270.745C213.506 271.704 212.929 272.757 212.29 273.768L211.218 275.255C210.439 276.232 209.541 277.105 208.671 277.998C207.847 278.844 207.026 279.686 206.284 280.605L205.552 281.683L205 283L219 283C220.317 282.997 221.645 283.034 222.96 282.945C224.15 282.865 225.366 282.726 226.432 282.143L227.737 281.121L228.275 280.468L229.231 278.995L229.71 278.231L230.781 276.745C231.731 275.54 232.859 274.489 233.777 273.255C234.492 272.293 235.071 271.243 235.71 270.232L236.782 268.745C237.364 268.016 238.012 267.334 238.671 266.674L240.605 264.802L241.339 264.201L241.683 263.888L243 263L243.275 264.977L243.511 265.834L244.278 267.265L245.383 268.657C245.997 269.351 246.646 270.017 247.219 270.745L248.29 272.232C248.929 273.243 249.508 274.293 250.223 275.255C250.77 275.991 251.39 276.659 251.999 277.343L253.201 278.735L254.155 280.166L254.7 281.431L255 283L277 283L276.448 281.683L275.716 280.605C274.595 279.205 273.28 277.976 272.223 276.522C271.516 275.55 270.939 274.488 270.29 273.478L269.218 272.036C267.84 270.352 266.14 268.958 264.782 267.255C263.837 266.071 263.098 264.754 262.29 263.478L261.218 262.036C260.036 260.591 258.603 259.375 257.383 257.964L256.224 256.522L255.715 255.764L254.841 254.196L254.478 253.399L254.184 252.6L253.92 251L254.184 249.4L254.478 248.601L254.841 247.804L255.715 246.236L256.224 245.478L257.383 244.036C258.603 242.625 260.036 241.409 261.218 239.964L262.29 238.522C263.098 237.246 263.837 235.929 264.782 234.745C265.366 234.013 266.02 233.341 266.671 232.671L269.329 229.999C269.977 229.341 270.632 228.679 271.218 227.964L272.29 226.522C273.098 225.246 273.837 223.929 274.782 222.745C275.561 221.768 276.459 220.895 277.329 220.002C278.153 219.156 278.974 218.314 279.716 217.395L280.448 216.317L281 215L268 215L264.015 215.019C262.794 215.057 261.504 215.081 260.343 215.514L258.875 216.314L257.725 217.532L257.236 218.251L256.29 219.769L255.218 221.255C253.859 222.957 252.16 224.352 250.782 226.036L249.71 227.478L248.29 229.768L247.219 231.255C246.646 231.983 245.997 232.649 245.383 233.343L244.278 234.735L243.511 236.166L243.275 237.023L243 239L241.683 238.112L241.339 237.799L240.605 237.198L238.671 235.326C238.012 234.666 237.364 233.984 236.782 233.255L235.71 231.768C235.071 230.757 234.494 229.704 233.777 228.745C232.289 226.756 230.328 225.192 228.782 223.255L227.71 221.768L227.232 221L226.29 219.478L225.776 218.75L225.215 218.055L224.602 217.402L223.942 216.804L222.481 215.843L220.816 215.278L219.907 215.133L217.985 215.019L216.996 215.005L215 215L203 215M287 215L287 283L303 283L303 215L287 215M317 225L317 243L356 243L361 243L362.996 242.995L364.96 242.945L366.811 242.721L367.656 242.486L369.106 241.682L369.682 241.106C370.233 240.443 370.533 239.642 370.721 238.811C371.004 237.568 370.973 236.262 370.995 234.996L371 231.005L371 225L317 225M185 233L185.3 234.569L185.84 235.833L186.745 237.255L187.735 238.592L188.191 239.335L188.448 239.682L189 241L153 241L153.495 239.645L153.681 239.271L154.287 237.829L154.558 236.968L154.719 236.569L155 235L156.569 234.7L157.835 234.16L159.279 233.25C160.01 232.735 160.717 232.186 161.475 231.71C162.227 231.237 163.006 230.806 163.808 230.424C164.887 229.909 165.991 229.481 167.171 229.26C168.1 229.086 169.056 229.037 170 229.037C170.946 229.037 171.897 229.092 172.83 229.259L174.575 229.711L176.271 230.309L178 230.87L179.725 231.401L181.38 231.996L182.126 232.288L183.008 232.557L183.427 232.719L185 233z"/>
<path style="fill:#064589; stroke:#064589;" d="M81 307L81 333L85 333L85 315L87 315L87.054 317.12L87.1289 318.071L87.4552 319.739L88.5988 323.129C88.9619 324.228 89.2506 325.351 89.6898 326.424L90.2554 327.64L91 329L93 329L94.4205 326.46L95.196 324.976L95.9506 323.384L96.5941 321.725L97.4012 319.132L98.544 315.874L98.8603 314.573L99 313L101 313L101 333L103 333L103 307L99 307L98.7184 308.573L98.2701 309.87C97.8277 310.935 97.3083 311.965 96.804 313.002L96.0494 314.614L95.4059 316.275L94.5988 318.868L93.456 322.126L93.1397 323.427L93 325L91 325L90.9807 323.344C90.9325 322.303 90.8158 321.272 90.5401 320.265C90.3069 319.412 89.9473 318.605 89.581 317.804L88.0494 314.565L87.4051 312.87L86.8503 311.15L86.5401 310.329L86.162 309.569L85.6914 308.893L84.4722 307.858L83.8156 307.515L82.9722 307.275L81 307M115 307L114.872 309.12L114.741 310.071L114.289 311.739L113.401 314.271L112.599 316.87L111.692 319.421L111.13 321.13L110.599 322.87L109.401 326.271L108.87 327.995L108.307 329.684L107.681 331.247L107.495 331.64L107 333L111 333L111.281 331.427L111.443 331.01L111.711 330.13L111.999 329.404L112.544 327.87L112.86 326.573L113 325L123 325L123.14 326.573L123.456 327.87L124.001 329.404L124.289 330.13L124.557 331.01L124.719 331.427L125 333L129 333L128.505 331.64L128.319 331.247L127.693 329.684L127.13 327.995L126.599 326.271L125.401 322.87L124.87 321.13L124.308 319.421L123.401 316.87L122.599 314.271L121.711 311.739L121.259 310.071L121.128 309.12L121 307L115 307M133 307L133 333L135 333C135.022 331.043 134.961 329.077 135.46 327.166C135.691 326.282 136.043 325.447 136.419 324.617L137.94 321.54L138.501 320.356L139 319L141 319L141.499 320.356L141.699 320.739L142.06 321.54L143.6 324.602C144.136 325.664 144.667 326.726 145.25 327.764L146.223 329.25L146.781 329.945L147.374 330.597L148.61 331.715L149.683 332.448L151 333L150.86 331.427L150.539 330.13L149.945 328.591L149.177 327.013L148.75 326.235L147.794 324.731L146.206 322.525C145.701 321.773 145.257 321.001 144.841 320.196L144.478 319.399L144.188 318.601L143.969 317.014L144.389 315.475L144.804 314.731L145.292 314L146.291 312.527C146.894 311.561 147.43 310.557 147.939 309.539L148.301 308.739L148.501 308.356L149 307L145 307L144.7 308.569L144.155 309.834L143.2 311.265C142.406 312.227 141.541 313.111 140.666 313.999C139.596 315.085 138.51 316.157 137.395 317.198L136.661 317.799L136.317 318.112L135 319L135 307L133 307M155 307L155 333L171 333L171 331L166.959 330.981L165.99 330.945L165.035 330.867L163.189 330.486L161.573 329.682L160.318 328.427L159.858 327.657L159.279 325.931L159.055 324.146C159.002 323.093 159.012 322.056 159 321L169 321L169 317L159 317L159 309L171 309L171 307L155 307M185 307L185 333L189.041 332.995C190.304 332.979 191.584 332.976 192.829 332.74C194.296 332.462 195.672 331.874 196.985 331.177C198.554 330.346 200.065 329.333 201.197 327.942C201.754 327.257 202.211 326.513 202.544 325.693L203.138 324.045L203.395 323.281L203.818 322.502L203.978 322.083L205 321L205 319L203.983 317.914L203.445 316.683C203.121 315.536 202.989 314.347 202.739 313.184L202.491 312.343L201.686 310.875L200.467 309.729L199.745 309.255L198.191 308.424L196.561 307.728L195.711 307.46L194.829 307.26L193.91 307.129L192.961 307.054L190.024 307.001L185 307M211 307L211 333L213 333L213 307L211 307M221 329L221.556 330.298L221.828 330.606L222.324 331.262L223.573 332.166L225.189 332.723L226.093 332.866L227.036 332.941L228.964 332.941L229.907 332.866L231.674 332.49L233.235 331.721L233.941 331.196L234.597 330.597L235.721 329.236L236.152 328.485L236.471 327.689L236.733 326L236.667 325.144L236.152 323.515L235.196 322.058L233.945 320.785L232.521 319.715L231.764 319.25L230.196 318.405L228.601 317.595L227.019 316.746L226.259 316.272L225.552 315.74L224.448 314.472L224.136 313.751L224.137 312.25L224.451 311.532L224.948 310.879L226.348 309.862L228.079 309.333L228.999 309.262L229.921 309.314L230.81 309.473C231.648 309.645 232.456 310.004 233.246 310.319L233.64 310.505L235 311L234.444 309.702L234.172 309.394L233.676 308.738L232.427 307.834C231.66 307.434 230.764 307.213 229.907 307.134L228 307.037L226.093 307.134L225.189 307.279L224.344 307.514L223.573 307.858L222.318 308.894C221.379 310.025 221.11 311.571 221.11 313L221.283 314.815L221.515 315.657L221.857 316.432L222.879 317.736L224.255 318.746L225.805 319.595L228.195 320.819L229.745 321.729L230.466 322.264L231.117 322.874L232.088 324.329L232.443 326L232.353 326.851L232.087 327.671L231.103 329.103L229.671 330.088L228.85 330.357L227.995 330.462L226.275 330.235L225.445 329.981L223.874 329.455L222.573 329.14L221 329M239 307L239 309L247 309L247 333L251 333L251 309L259 309L259 307L239 307M263 307L263 333L267 333L267 321L268.569 321.301L268.972 321.502L269.816 321.859L271.15 322.879C272.017 323.704 272.615 324.766 273.181 325.805L274.819 328.981C275.354 329.967 275.963 330.973 276.85 331.686L278.184 332.485L279.028 332.725L279.431 332.856L281 333L280.501 331.644L280.301 331.261L279.94 330.46L278.401 327.403L277.604 325.86L277.188 325.146L276.81 324.521L276.292 323.956L276.074 323.639L275 323L275 321L276.317 320.448L276.66 320.187L277.39 319.715L278.62 318.597L279.196 317.945L280.103 316.521L280.462 314.986L280.407 314.196L280.217 313.399C279.927 312.578 279.592 311.785 279.176 311.019L278.271 309.533L277.736 308.879L277.125 308.314L276.432 307.857C275.648 307.428 274.782 307.248 273.906 307.133C272.943 307.008 271.964 307.022 270.996 307.005L268.025 307L263 307M287 307L287 333L289 333L289 307L287 307M297 307L297 333L302.024 332.999L304.961 332.946L305.91 332.871L306.829 332.74L307.711 332.54L308.561 332.272L310.191 331.576C311.712 330.849 313.302 329.961 314.143 328.432C314.721 327.38 314.861 326.18 314.945 325.005L314.995 323.155L315 321L313.431 320.701L312.184 320.164L310.871 319.262L309.902 318.298L309 317L313 317L312.995 314.845L312.945 312.995C312.862 311.831 312.733 310.609 312.142 309.573L311.682 308.894L310.427 307.858L309.656 307.514L308.811 307.279L306.96 307.055L304.996 307.005L303.005 307L297 307M321 307L321 321L321.005 322.996L321.019 323.985L321.133 325.907L321.278 326.816L321.843 328.481L322.804 329.941L323.403 330.597L324.059 331.196L324.765 331.721L325.519 332.157L326.326 332.49L327.184 332.722L328.093 332.866L330 332.963L331.907 332.866L332.816 332.722L333.674 332.49L334.481 332.157L335.235 331.721L335.941 331.196L336.597 330.597L337.196 329.941L338.157 328.481L338.722 326.816L338.867 325.907L338.981 323.985L338.995 322.996L339 321L339 307L337 307L337 316C336.997 317.329 337 318.657 336.946 319.985L336.871 320.961L336.74 321.91C336.562 323.121 336.089 324.283 335.576 325.384C335.195 326.204 334.752 326.981 334.271 327.745L333.736 328.466L332.436 329.667L330.851 330.353L330 330.443L329.149 330.353L327.564 329.667L326.264 328.466L325.729 327.745C325.248 326.981 324.805 326.204 324.424 325.384C323.911 324.283 323.438 323.121 323.26 321.91L323.129 320.961L323.054 319.985C323 318.657 323.003 317.329 323 316L323 307L321 307M345 307L345 309L353 309L353 333L355 333L355 309L363 309L363 307L345 307M369 307L369 333L371 333L371 307L369 307M397 331L397.281 329.427L397.443 329.008L397.711 328.126L397.999 327.38C398.291 326.537 398.58 325.71 398.741 324.829C399.03 323.24 398.99 321.607 398.999 319.999C399.007 318.673 399.023 317.341 398.981 316.015C398.943 314.778 398.9 313.507 398.49 312.326C398.102 311.207 397.43 310.236 396.597 309.403C395.764 308.57 394.793 307.898 393.674 307.51L391.907 307.133C390.937 307.047 389.974 307.009 389 307.009C388.026 307.009 387.063 307.047 386.093 307.133L384.326 307.51L382.765 308.279L381.398 309.402L380.225 310.75L379.251 312.236C378.647 313.255 378.158 314.337 377.728 315.439L377.461 316.289L377.265 317.167L377.147 318.075L377.147 319.925L377.456 321.715C377.79 322.87 378.215 323.991 378.6 325.13C379.064 326.506 379.383 327.964 380.309 329.126C381.019 330.015 382.016 330.665 383.019 331.177C383.808 331.579 384.601 331.98 385.439 332.272C386.297 332.57 387.169 332.775 388.075 332.853C389.282 332.956 390.541 332.872 391.711 332.544L393.38 331.999L394.126 331.711L395.008 331.443L395.427 331.281L397 331M405 307L405 333L409 333L409 313L411 313L411.14 314.573L411.461 315.87L412.054 317.41L413.201 319.8C413.99 321.4 414.78 323.001 415.71 324.525C416.179 325.296 416.754 325.993 417.269 326.731L418.295 328.231L419.236 329.749L419.723 330.468L420.85 331.686L422.184 332.485L423.028 332.725L425 333L425 307L421 307L421 325L419 325L418.725 323.023L418.49 322.165L417.74 320.721L416.205 318.525L415.249 316.986C414.8 316.21 414.409 315.399 414 314.601C413.457 313.541 412.919 312.488 412.285 311.479L411.215 310.055L410.603 309.402L409.947 308.804C409.323 308.242 408.586 307.865 407.834 307.511L406.977 307.275L405 307M439 307L439 333L443 333L443 321L453 321L453 319L443 319L443 309L455 309L455 307L439 307M459 307L459 333L475 333L475 331L463 331L463 307L459 307M479 307L479 333L495 333L495 331L483 331L483 321L493 321L493 317L483 317L483 309L495 309L495 307L479 307M499 307L499.499 308.356L499.699 308.739L500.06 309.54L502.4 314.2C502.787 314.991 503.209 315.778 503.527 316.6C503.827 317.377 504.08 318.157 504.08 319C504.08 320.137 503.632 321.183 503.177 322.2L502 324.6C501.098 326.416 500.125 328.208 499.461 330.13L499.14 331.427L499 333L500.299 332.444L501.28 331.68L502.295 330.466C502.769 329.733 503.194 328.982 503.576 328.196C503.944 327.44 504.27 326.667 504.539 325.87L504.86 324.573L505 323L509 323L509.14 324.573L509.461 325.87C509.73 326.667 510.054 327.441 510.424 328.196L511.255 329.745L511.728 330.467L512.259 331.121L513.523 332.143L515.028 332.725L515.431 332.856L517 333L516.501 331.644L516.301 331.261L515.939 330.461L514.75 328.231L514.29 327.473L513.269 326L512.732 325.269L511.711 323.765C511.242 323.004 510.837 322.217 510.478 321.399C510.157 320.666 509.916 319.823 509.969 319.014L510.389 317.475L510.804 316.731L511.292 316L511.799 315.269L512.75 313.765C513.191 313.001 513.576 312.209 513.945 311.409L514.539 309.87L514.86 308.573L515 307L513.701 307.556L512.72 308.32L511.705 309.534C511.231 310.267 510.806 311.018 510.424 311.804C510.056 312.56 509.73 313.333 509.461 314.13L509.14 315.427L509 317L507.701 316.097L506.72 315.119L505.705 313.745L504.822 312.196C504.435 311.429 504.074 310.657 503.73 309.87L503.448 308.991L503.282 308.573L503 307L499 307M521 307L521 333L525 333L525 307L521 307M531 307L531 333L538.001 332.999C539.608 332.989 541.24 333.03 542.829 332.741C543.709 332.58 544.537 332.291 545.38 331.999L546.126 331.711L547.008 331.443L547.427 331.281L549 331L549.295 329.478L549.838 328.359L549.982 328.04L551 327L551 325L549.925 323.956L549.704 323.576L549.173 322.868L548.29 321.515L547.279 320.319L546.299 319.556L545 319L545 317L546.298 316.444L546.606 316.173L547.709 315.123L548.111 314.467L548.445 312.995L548.356 312.231L547.703 310.75L547.191 310.055L546.596 309.402L545.941 308.804L544.481 307.843C542.772 307.011 540.851 307.037 538.996 307.005L536.025 307L531 307M555 307L555 333L571 333L571 331L559 331L559 307L555 307M575 307L575 333L591 333L591 331L579 331L579 321C580.337 320.995 581.669 321.006 583.005 320.945L584.816 320.723L586.427 320.166L587.676 319.262L588.172 318.606L589 317L579 317L579 309L591 309L591 307L575 307M189 331L189 309L191.155 309.005L193.005 309.055L194.816 309.279L195.658 309.514L197.125 310.314L198.271 311.533L198.745 312.255L199.177 313.019L199.945 314.616C200.289 315.448 200.575 316.282 200.74 317.171C200.914 318.109 200.939 319.049 200.963 320L200.941 320.964L200.866 321.907L200.49 323.674L200.157 324.482L199.2 325.96L198.612 326.651L197.325 327.981C196.49 328.816 195.554 329.631 194.487 330.157L192.86 330.722L192.067 330.867L190.656 330.981L189 331M267 319L267 309L269.155 309.005L271.005 309.055C272.169 309.138 273.391 309.268 274.427 309.858L275.681 310.893L276.137 311.569L276.468 312.329L276.733 314L276.468 315.671L275.681 317.107L274.427 318.142C273.391 318.732 272.169 318.862 271.005 318.945L269.155 318.995L267 319M301 317L301 309L303.155 309.005L305.005 309.055C305.893 309.118 306.816 309.194 307.657 309.514L309.102 310.314L309.664 310.879L310.087 311.532L310.353 312.25L310.353 313.75L309.664 315.121L308.427 316.143C307.389 316.732 306.17 316.862 305.005 316.945L303.155 316.995L301 317M383 329L382.719 327.427L382.557 327.008L382.289 326.126L382.001 325.38L381.455 323.71C381.113 322.501 381.058 321.233 381.019 319.986C380.989 319.01 380.99 318.015 381.055 317.04C381.116 316.124 381.207 315.2 381.51 314.326L382.279 312.765L382.804 312.059L383.403 311.403L384.059 310.804L384.765 310.279L386.325 309.511L387.181 309.282L388.079 309.152L389.921 309.152L390.815 309.283L391.657 309.515L393.125 310.314L394.271 311.533L394.745 312.255L395.576 313.809L396.272 315.439L396.539 316.289L396.735 317.167C396.853 318.076 396.972 319.007 396.853 319.925L396.539 321.711L396.272 322.561C395.842 323.663 395.353 324.744 394.749 325.764L393.775 327.25L393.215 327.945L391.946 329.191L391.25 329.703L389.764 330.361L388.197 330.411L387.409 330.235L386.606 329.981L385.87 329.707L384.991 329.442L384.573 329.281L383 329M545 317L535 317L535 309C536.336 309.005 537.669 308.994 539.005 309.055L540.816 309.279L542.427 309.858L543.682 310.892L544.142 311.568L544.721 313.144L544.867 313.934L544.981 315.344L545 317M119 311L119.281 312.573L119.443 312.992L119.711 313.874L119.999 314.62C120.291 315.462 120.577 316.288 120.741 317.167C120.906 318.054 120.95 318.954 120.981 319.854L121 323L115 323L115.019 319.854C115.05 318.954 115.094 318.054 115.259 317.167C115.423 316.288 115.709 315.462 116.001 314.62L116.289 313.874L116.557 312.992L116.719 312.573L117 311L119 311M55 319L55 321L71 321L71 319L55 319M601 319L601 321L617 321L617 319L601 319M313 323L313 325L311.925 326.044L311.704 326.424L311.171 327.132L310.758 327.794C310.269 328.475 309.802 329.173 309.124 329.687L307.658 330.486L306.816 330.721L305.005 330.945L303.155 330.995L301 331L301 321L304.16 321.001L306.964 321.054L307.907 321.13L309.669 321.465L310.421 321.708L311.64 322.256L313 323M547 321L547 329L545.427 329.281L545.008 329.443L544.126 329.711L543.38 329.999C542.537 330.291 541.713 330.577 540.833 330.741C539.946 330.906 539.046 330.95 538.146 330.981L535 331L535 321L547 321z"/>
</svg>
